<svg width="256" height="254" viewBox="0 0 256 254" fill="none" xmlns="http://www.w3.org/2000/svg">
<rect x="234.5" y="171.5" width="89" height="19" transform="rotate(-90 234.5 171.5)" fill="url(#paint0_linear_13_63)" stroke="url(#paint1_angular_13_63)"/>
<path d="M128 217.5H127.5V218V233V233.5H128H233H234.207L233.354 232.646L218.354 217.646L218.207 217.5H218H128Z" fill="url(#paint2_linear_13_63)" stroke="url(#paint3_angular_13_63)"/>
<path d="M128 233.5H127.5V234V252V252.5H128H253H254.255L253.344 251.637L234.344 233.637L234.199 233.5H234H128Z" fill="url(#paint4_linear_13_63)" stroke="url(#paint5_angular_13_63)"/>
<path d="M128 20.5H127.5V20V2V1.5H128H253H254.255L253.344 2.36298L234.344 20.363L234.199 20.5H234H128Z" fill="url(#paint6_linear_13_63)" stroke="url(#paint7_angular_13_63)"/>
<path d="M234.5 172V171.5H235H253H253.494L253.5 171.994L254.5 250.994L254.515 252.177L253.656 251.363L234.656 233.363L234.5 233.215V233L234.5 172Z" fill="url(#paint8_linear_13_63)" stroke="url(#paint9_angular_13_63)"/>
<path d="M234.5 82V82.5H235H253H253.494L253.5 82.0063L254.5 3.00633L254.515 1.82342L253.656 2.63702L234.656 20.637L234.5 20.7849V21L234.5 82Z" fill="url(#paint10_linear_13_63)" stroke="url(#paint11_angular_13_63)"/>
<path d="M128 36.5H127.5V36V21V20.5H128H233H234.207L233.354 21.3536L218.354 36.3536L218.207 36.5H218H128Z" fill="url(#paint12_linear_13_63)" stroke="url(#paint13_angular_13_63)"/>
<path d="M218.5 127V126.5H219H234H234.5V127L234.5 232V233.207L233.646 232.354L218.646 217.354L218.5 217.207V217L218.5 127Z" fill="url(#paint14_linear_13_63)" stroke="url(#paint15_angular_13_63)"/>
<path d="M218.5 126V126.5H219H234H234.5V126L234.5 22V20.7929L233.646 21.6464L218.646 36.6464L218.5 36.7929V37L218.5 126Z" fill="url(#paint16_linear_13_63)" stroke="url(#paint17_angular_13_63)"/>
<rect x="127.5" y="36.5" width="91" height="91" fill="url(#paint18_linear_13_63)" stroke="url(#paint19_angular_13_63)"/>
<rect x="127.5" y="126.5" width="91" height="91" fill="url(#paint20_linear_13_63)" stroke="url(#paint21_angular_13_63)"/>
<rect x="37.5" y="36.5" width="91" height="91" fill="url(#paint22_linear_13_63)" stroke="url(#paint23_angular_13_63)"/>
<rect x="2.5" y="171.5" width="89" height="19" transform="rotate(-90 2.5 171.5)" fill="url(#paint24_linear_13_63)" stroke="url(#paint25_angular_13_63)"/>
<path d="M128 217.5H128.5V218V233V233.5H128H23H21.7929L22.6464 232.646L37.6464 217.646L37.7929 217.5H38H128Z" fill="url(#paint26_linear_13_63)" stroke="url(#paint27_angular_13_63)"/>
<path d="M128 36.5H128.5V36V21V20.5H128H23H21.7929L22.6464 21.3536L37.6464 36.3536L37.7929 36.5H38H128Z" fill="url(#paint28_linear_13_63)" stroke="url(#paint29_angular_13_63)"/>
<path d="M37.5 127V126.5H37H22H21.5V127L21.5 232V233.207L22.3536 232.354L37.3536 217.354L37.5 217.207V217L37.5 127Z" fill="url(#paint30_linear_13_63)" stroke="url(#paint31_angular_13_63)"/>
<path d="M37.5 126V126.5H37H22H21.5V126L21.5 22V20.801L22.3519 21.6448L37.3519 36.5019L37.5 36.6486V36.8571L37.5 126Z" fill="url(#paint32_linear_13_63)" stroke="url(#paint33_angular_13_63)"/>
<rect x="37.5" y="126.5" width="91" height="91" fill="url(#paint34_linear_13_63)" stroke="url(#paint35_angular_13_63)"/>
<path d="M128 233.5H128.5V234V252V252.5H128H3H1.74521L2.65613 251.637L21.6561 233.637L21.8008 233.5H22H128Z" fill="url(#paint36_linear_13_63)" stroke="url(#paint37_angular_13_63)"/>
<path d="M128 20.5H128.5V20V2V1.5H128H3H1.74521L2.65613 2.36298L21.6561 20.363L21.8008 20.5H22H128Z" fill="url(#paint38_linear_13_63)" stroke="url(#paint39_angular_13_63)"/>
<path d="M21.5 172V171.5H21H3H2.50629L2.50004 171.994L1.50004 250.994L1.48507 252.177L2.34387 251.363L21.3439 233.363L21.5 233.215V233L21.5 172Z" fill="url(#paint40_linear_13_63)" stroke="url(#paint41_angular_13_63)"/>
<path d="M21.5 82V82.5H21H3H2.50629L2.50004 82.0063L1.50004 3.00633L1.48507 1.82342L2.34387 2.63702L21.3439 20.637L21.5 20.7849V21L21.5 82Z" fill="url(#paint42_linear_13_63)" stroke="url(#paint43_angular_13_63)"/>
<rect x="82.5" y="1.5" width="91" height="19" fill="url(#paint44_linear_13_63)" stroke="url(#paint45_angular_13_63)"/>
<rect x="82.5" y="233.5" width="91" height="19" fill="url(#paint46_linear_13_63)" stroke="url(#paint47_angular_13_63)"/>
<defs>
<linearGradient id="paint0_linear_13_63" x1="265" y1="171" x2="301.5" y2="189" gradientUnits="userSpaceOnUse">
<stop stop-color="white"/>
<stop offset="1" stop-color="#D1D1D1"/>
</linearGradient>
<radialGradient id="paint1_angular_13_63" cx="0" cy="0" r="1" gradientUnits="userSpaceOnUse" gradientTransform="translate(279 180) rotate(90) scale(9 44)">
<stop offset="0.015625" stop-color="#B9B9B9"/>
<stop offset="0.213542" stop-color="#393939"/>
</radialGradient>
<linearGradient id="paint2_linear_13_63" x1="257.5" y1="188.5" x2="180.5" y2="233" gradientUnits="userSpaceOnUse">
<stop offset="0.140625" stop-color="#FFEB3A"/>
<stop offset="1" stop-color="#FFB423"/>
</linearGradient>
<radialGradient id="paint3_angular_13_63" cx="0" cy="0" r="1" gradientUnits="userSpaceOnUse" gradientTransform="translate(180.5 225.5) rotate(90) scale(7.5 52.5)">
<stop offset="0.015625" stop-color="#B9B9B9"/>
<stop offset="0.213542" stop-color="#393939"/>
</radialGradient>
<linearGradient id="paint4_linear_13_63" x1="236.5" y1="243" x2="128" y2="243" gradientUnits="userSpaceOnUse">
<stop stop-color="#FF2B2B"/>
<stop offset="1" stop-color="#BA0000"/>
</linearGradient>
<radialGradient id="paint5_angular_13_63" cx="0" cy="0" r="1" gradientUnits="userSpaceOnUse" gradientTransform="translate(190.5 243) rotate(90) scale(9 62.5)">
<stop offset="0.015625" stop-color="#B9B9B9"/>
<stop offset="0.213542" stop-color="#393939"/>
</radialGradient>
<linearGradient id="paint6_linear_13_63" x1="235.5" y1="20" x2="151.5" y2="2" gradientUnits="userSpaceOnUse">
<stop stop-color="#FF2B2B"/>
<stop offset="1" stop-color="#BA0000"/>
</linearGradient>
<radialGradient id="paint7_angular_13_63" cx="0" cy="0" r="1" gradientUnits="userSpaceOnUse" gradientTransform="translate(190.5 11) rotate(-90) scale(9 62.5)">
<stop offset="0.015625" stop-color="#B9B9B9"/>
<stop offset="0.213542" stop-color="#393939"/>
</radialGradient>
<linearGradient id="paint8_linear_13_63" x1="245" y1="236" x2="235" y2="187.5" gradientUnits="userSpaceOnUse">
<stop stop-color="#FF2B2B"/>
<stop offset="1" stop-color="#BA0000"/>
</linearGradient>
<radialGradient id="paint9_angular_13_63" cx="0" cy="0" r="1" gradientUnits="userSpaceOnUse" gradientTransform="translate(244.5 211.5) scale(9.5 39.5)">
<stop offset="0.015625" stop-color="#B9B9B9"/>
<stop offset="0.213542" stop-color="#393939"/>
</radialGradient>
<linearGradient id="paint10_linear_13_63" x1="254" y1="52.5" x2="235" y2="32.5" gradientUnits="userSpaceOnUse">
<stop stop-color="#FF2B2B"/>
<stop offset="1" stop-color="#BA0000"/>
</linearGradient>
<radialGradient id="paint11_angular_13_63" cx="0" cy="0" r="1" gradientUnits="userSpaceOnUse" gradientTransform="translate(244.5 42.5) scale(9.5 39.5)">
<stop offset="0.015625" stop-color="#B9B9B9"/>
<stop offset="0.213542" stop-color="#393939"/>
</radialGradient>
<linearGradient id="paint12_linear_13_63" x1="173.5" y1="29" x2="128" y2="29" gradientUnits="userSpaceOnUse">
<stop offset="0.140625" stop-color="#FFEB3A"/>
<stop offset="1" stop-color="#FFB423"/>
</linearGradient>
<radialGradient id="paint13_angular_13_63" cx="0" cy="0" r="1" gradientUnits="userSpaceOnUse" gradientTransform="translate(180.5 28.5) rotate(-90) scale(7.5 52.5)">
<stop offset="0.015625" stop-color="#B9B9B9"/>
<stop offset="0.213542" stop-color="#393939"/>
</radialGradient>
<linearGradient id="paint14_linear_13_63" x1="219" y1="152.5" x2="234" y2="189.5" gradientUnits="userSpaceOnUse">
<stop offset="0.140625" stop-color="#FFEB3A"/>
<stop offset="1" stop-color="#FFB423"/>
</linearGradient>
<radialGradient id="paint15_angular_13_63" cx="0" cy="0" r="1" gradientUnits="userSpaceOnUse" gradientTransform="translate(226.5 179.5) scale(7.5 52.5)">
<stop offset="0.015625" stop-color="#B9B9B9"/>
<stop offset="0.213542" stop-color="#393939"/>
</radialGradient>
<linearGradient id="paint16_linear_13_63" x1="219" y1="107" x2="234" y2="74" gradientUnits="userSpaceOnUse">
<stop offset="0.140625" stop-color="#FFEB3A"/>
<stop offset="1" stop-color="#FFB423"/>
</linearGradient>
<radialGradient id="paint17_angular_13_63" cx="0" cy="0" r="1" gradientUnits="userSpaceOnUse" gradientTransform="translate(226.5 74) scale(7.5 52)">
<stop offset="0.015625" stop-color="#B9B9B9"/>
<stop offset="0.213542" stop-color="#393939"/>
</radialGradient>
<linearGradient id="paint18_linear_13_63" x1="150.5" y1="68" x2="173" y2="127" gradientUnits="userSpaceOnUse">
<stop stop-color="#0033B7"/>
<stop offset="1" stop-color="#002072"/>
</linearGradient>
<radialGradient id="paint19_angular_13_63" cx="0" cy="0" r="1" gradientUnits="userSpaceOnUse" gradientTransform="translate(173 82) rotate(90) scale(45)">
<stop offset="0.015625" stop-color="#B9B9B9"/>
<stop offset="0.213542" stop-color="#393939"/>
</radialGradient>
<linearGradient id="paint20_linear_13_63" x1="108" y1="114" x2="173" y2="177.5" gradientUnits="userSpaceOnUse">
<stop stop-color="#0033B7"/>
<stop offset="1" stop-color="#002072"/>
</linearGradient>
<radialGradient id="paint21_angular_13_63" cx="0" cy="0" r="1" gradientUnits="userSpaceOnUse" gradientTransform="translate(173 172) rotate(90) scale(45)">
<stop offset="0.015625" stop-color="#B9B9B9"/>
<stop offset="0.213542" stop-color="#393939"/>
</radialGradient>
<linearGradient id="paint22_linear_13_63" x1="93" y1="55" x2="54" y2="109.5" gradientUnits="userSpaceOnUse">
<stop stop-color="#0033B7"/>
<stop offset="1" stop-color="#002072"/>
</linearGradient>
<radialGradient id="paint23_angular_13_63" cx="0" cy="0" r="1" gradientUnits="userSpaceOnUse" gradientTransform="translate(83 82) rotate(90) scale(45)">
<stop offset="0.015625" stop-color="#B9B9B9"/>
<stop offset="0.213542" stop-color="#393939"/>
</radialGradient>
<linearGradient id="paint24_linear_13_63" x1="27" y1="171" x2="47" y2="189" gradientUnits="userSpaceOnUse">
<stop stop-color="white"/>
<stop offset="1" stop-color="#D1D1D1"/>
</linearGradient>
<radialGradient id="paint25_angular_13_63" cx="0" cy="0" r="1" gradientUnits="userSpaceOnUse" gradientTransform="translate(47 180) rotate(90) scale(9 44)">
<stop offset="0.015625" stop-color="#B9B9B9"/>
<stop offset="0.213542" stop-color="#393939"/>
</radialGradient>
<linearGradient id="paint26_linear_13_63" x1="75.5" y1="218" x2="75.5" y2="233" gradientUnits="userSpaceOnUse">
<stop offset="0.140625" stop-color="#FFEB3A"/>
<stop offset="1" stop-color="#FFB423"/>
</linearGradient>
<radialGradient id="paint27_angular_13_63" cx="0" cy="0" r="1" gradientUnits="userSpaceOnUse" gradientTransform="translate(75.5 225.5) rotate(90) scale(7.5 52.5)">
<stop offset="0.015625" stop-color="#B9B9B9"/>
<stop offset="0.213542" stop-color="#393939"/>
</radialGradient>
<linearGradient id="paint28_linear_13_63" x1="75.5" y1="36" x2="101.5" y2="21" gradientUnits="userSpaceOnUse">
<stop offset="0.140625" stop-color="#FFEB3A"/>
<stop offset="1" stop-color="#FFB423"/>
</linearGradient>
<radialGradient id="paint29_angular_13_63" cx="0" cy="0" r="1" gradientUnits="userSpaceOnUse" gradientTransform="translate(75.5 28.5) rotate(-90) scale(7.5 52.5)">
<stop offset="0.015625" stop-color="#B9B9B9"/>
<stop offset="0.213542" stop-color="#393939"/>
</radialGradient>
<linearGradient id="paint30_linear_13_63" x1="37" y1="179.5" x2="22" y2="158.5" gradientUnits="userSpaceOnUse">
<stop offset="0.140625" stop-color="#FFEB3A"/>
<stop offset="1" stop-color="#FFB423"/>
</linearGradient>
<radialGradient id="paint31_angular_13_63" cx="0" cy="0" r="1" gradientUnits="userSpaceOnUse" gradientTransform="translate(29.5 179.5) rotate(180) scale(7.5 52.5)">
<stop offset="0.015625" stop-color="#B9B9B9"/>
<stop offset="0.213542" stop-color="#393939"/>
</radialGradient>
<linearGradient id="paint32_linear_13_63" x1="22" y1="55.5" x2="37" y2="84.5" gradientUnits="userSpaceOnUse">
<stop offset="0.140625" stop-color="#FFEB3A"/>
<stop offset="1" stop-color="#FFB423"/>
</linearGradient>
<radialGradient id="paint33_angular_13_63" cx="0" cy="0" r="1" gradientUnits="userSpaceOnUse" gradientTransform="translate(29.5 74) rotate(180) scale(7.5 52)">
<stop offset="0.015625" stop-color="#B9B9B9"/>
<stop offset="0.213542" stop-color="#393939"/>
</radialGradient>
<linearGradient id="paint34_linear_13_63" x1="95" y1="121" x2="112" y2="193" gradientUnits="userSpaceOnUse">
<stop stop-color="#0033B7"/>
<stop offset="1" stop-color="#002072"/>
</linearGradient>
<radialGradient id="paint35_angular_13_63" cx="0" cy="0" r="1" gradientUnits="userSpaceOnUse" gradientTransform="translate(83 172) rotate(90) scale(45)">
<stop offset="0.015625" stop-color="#B9B9B9"/>
<stop offset="0.213542" stop-color="#393939"/>
</radialGradient>
<linearGradient id="paint36_linear_13_63" x1="96" y1="243" x2="41" y2="243" gradientUnits="userSpaceOnUse">
<stop stop-color="#FF2B2B"/>
<stop offset="1" stop-color="#BA0000"/>
</linearGradient>
<radialGradient id="paint37_angular_13_63" cx="0" cy="0" r="1" gradientUnits="userSpaceOnUse" gradientTransform="translate(65.5 243) rotate(90) scale(9 62.5)">
<stop offset="0.015625" stop-color="#B9B9B9"/>
<stop offset="0.213542" stop-color="#393939"/>
</radialGradient>
<linearGradient id="paint38_linear_13_63" x1="46" y1="11" x2="96" y2="2" gradientUnits="userSpaceOnUse">
<stop stop-color="#FF2B2B"/>
<stop offset="1" stop-color="#BA0000"/>
</linearGradient>
<radialGradient id="paint39_angular_13_63" cx="0" cy="0" r="1" gradientUnits="userSpaceOnUse" gradientTransform="translate(65.5 11) rotate(-90) scale(9 62.5)">
<stop offset="0.015625" stop-color="#B9B9B9"/>
<stop offset="0.213542" stop-color="#393939"/>
</radialGradient>
<linearGradient id="paint40_linear_13_63" x1="21" y1="244" x2="2" y2="188.5" gradientUnits="userSpaceOnUse">
<stop stop-color="#FF2B2B"/>
<stop offset="1" stop-color="#BA0000"/>
</linearGradient>
<radialGradient id="paint41_angular_13_63" cx="0" cy="0" r="1" gradientUnits="userSpaceOnUse" gradientTransform="translate(11.5 211.5) rotate(180) scale(9.5 39.5)">
<stop offset="0.015625" stop-color="#B9B9B9"/>
<stop offset="0.213542" stop-color="#393939"/>
</radialGradient>
<linearGradient id="paint42_linear_13_63" x1="21" y1="42.5" x2="2" y2="42.5" gradientUnits="userSpaceOnUse">
<stop stop-color="#FF2B2B"/>
<stop offset="1" stop-color="#BA0000"/>
</linearGradient>
<radialGradient id="paint43_angular_13_63" cx="0" cy="0" r="1" gradientUnits="userSpaceOnUse" gradientTransform="translate(11.5 42.5) rotate(180) scale(9.5 39.5)">
<stop offset="0.015625" stop-color="#B9B9B9"/>
<stop offset="0.213542" stop-color="#393939"/>
</radialGradient>
<linearGradient id="paint44_linear_13_63" x1="128" y1="2" x2="128" y2="20" gradientUnits="userSpaceOnUse">
<stop stop-color="white"/>
<stop offset="1" stop-color="#D1D1D1"/>
</linearGradient>
<radialGradient id="paint45_angular_13_63" cx="0" cy="0" r="1" gradientUnits="userSpaceOnUse" gradientTransform="translate(128 11) rotate(90) scale(9 45)">
<stop offset="0.015625" stop-color="#B9B9B9"/>
<stop offset="0.213542" stop-color="#393939"/>
</radialGradient>
<linearGradient id="paint46_linear_13_63" x1="128" y1="234" x2="128" y2="252" gradientUnits="userSpaceOnUse">
<stop stop-color="white"/>
<stop offset="1" stop-color="#D1D1D1"/>
</linearGradient>
<radialGradient id="paint47_angular_13_63" cx="0" cy="0" r="1" gradientUnits="userSpaceOnUse" gradientTransform="translate(128 243) rotate(90) scale(9 45)">
<stop offset="0.015625" stop-color="#B9B9B9"/>
<stop offset="0.213542" stop-color="#393939"/>
</radialGradient>
</defs>
</svg>
